<?xml version="1.0" encoding="UTF-8" standalone="no"?>
<svg
   xmlns:dc="http://purl.org/dc/elements/1.1/"
   xmlns:cc="http://creativecommons.org/ns#"
   xmlns:rdf="http://www.w3.org/1999/02/22-rdf-syntax-ns#"
   xmlns:svg="http://www.w3.org/2000/svg"
   xmlns="http://www.w3.org/2000/svg"
   xmlns:sodipodi="http://sodipodi.sourceforge.net/DTD/sodipodi-0.dtd"
   xmlns:inkscape="http://www.inkscape.org/namespaces/inkscape"
   viewBox="0 0 180 160"
   height="160"
   width="180"
   id="svg869"
   version="1.1"
   sodipodi:docname="TermBee-Logo-Boxed-fixed.svg"
   inkscape:version="0.92.4 (unknown)">
  <sodipodi:namedview
     pagecolor="#ffffff"
     bordercolor="#666666"
     borderopacity="1"
     objecttolerance="10"
     gridtolerance="10"
     guidetolerance="10"
     inkscape:pageopacity="0"
     inkscape:pageshadow="2"
     inkscape:window-width="1920"
     inkscape:window-height="1016"
     id="namedview821"
     showgrid="false"
     inkscape:zoom="1.998992"
     inkscape:cx="133.68881"
     inkscape:cy="80.666664"
     inkscape:window-x="0"
     inkscape:window-y="27"
     inkscape:window-maximized="1"
     inkscape:current-layer="svg869" />
  <metadata
     id="metadata875">
    <rdf:RDF>
      <cc:Work
         rdf:about="">
        <dc:format>image/svg+xml</dc:format>
        <dc:type
           rdf:resource="http://purl.org/dc/dcmitype/StillImage" />
        <dc:title></dc:title>
      </cc:Work>
    </rdf:RDF>
  </metadata>
  <defs
     id="defs873" />
  <path
     style="fill:#000000;stroke-width:1"
     d="m 8.4471199,143.04056 c -2.289341,-2.75848 -1.008389,-13.8555 2.7674911,-23.97505 4.45415,-11.93735 20.505938,-27.527629 36.122976,-35.084409 12.17644,-5.89194 16.38518,-6.78033 17.56433,-3.70753 0.83106,2.16572 -2.05021,4.87841 -7.76743,7.31295 -7.80557,3.32381 -25.397769,15.951599 -29.725974,21.337489 -5.766638,7.17583 -10.911364,18.38467 -10.927665,23.80817 -0.012,4.01342 0.310816,4.33333 4.373509,4.33333 15.38772,0 42.36618,-13.34434 56.03685,-27.71748 l 3.75672,-3.94975 -4.22184,-6.861369 c -4.19273,-6.81405 -4.47975,-10.80473 -0.77711,-10.80473 2.14453,0 12.81884,15.187329 12.81884,18.238559 0,4.55245 -22.24972,22.8124 -36.66666,30.09169 -16.04726,8.10244 -39.313043,11.84724 -43.3540371,6.97813 z"
     id="path849"
     inkscape:connector-curvature="0" />
  <path
     style="fill:#000000;stroke-width:1"
     d="m 95.801146,97.842361 c -8.556569,-3.81929 -15.333329,-14.66239 -15.333329,-24.53397 0,-3.60907 1.18401,-6.81059 3.91093,-10.57499 l 3.91094,-5.398886 -12.24427,-0.894697 C 46.483267,54.279689 24.893992,49.024552 17.603509,42.214222 c -5.550427,-5.18488 -5.33693,-12.47843 0.53098,-18.13955 12.129751,-11.702269 31.890558,-14.3763288 52.703278,-7.131879 16.90952,5.885839 37.909573,19.536369 38.722783,25.170729 0.65672,4.55001 -2.91669,3.68807 -12.213534,-2.94602 C 68.904297,18.871203 41.743927,14.306483 25.074372,27.020972 c -14.214538,10.84196 5.947796,18.98411 55.190485,22.28755 18.329679,1.22965 23.289813,1.96722 23.898613,3.55372 0.46308,1.206783 -0.46764,2.836423 -2.34313,4.102645 -7.209634,4.867544 -14.685853,13.170244 -14.685853,16.309334 0,5.51267 5.634239,14.72964 10.666659,17.44944 4.987444,2.6955 14.414114,2.61786 21.666674,-0.17843 4.55497,-1.75621 4.70677,-4.91571 1,-20.81305 -3.54068,-15.18499 -3.50953,-24.568849 0.0968,-29.153519 2.28545,-2.90549 3.84216,-3.51089 9,-3.50012 12.32961,0.0258 27.24604,10.17736 37.48583,25.511559 6.71557,10.05666 7.34659,17.31143 2.05294,23.60257 -4.33616,5.1532 -13.4476,9.53951 -19.81594,9.53951 -4.40512,0 -4.95403,-0.3537 -4.57903,-2.95063 0.29713,-2.05776 1.63647,-3.19811 4.42607,-3.76847 8.43849,-1.72533 16.66666,-7.93873 16.66666,-12.58561 0,-7.27994 -16.37966,-25.320659 -27.4256,-30.206799 -3.30268,-1.46093 -7.63301,-2.4685 -9.62297,-2.23903 -3.19129,0.36799 -3.66489,1.05374 -4.01487,5.81319 -0.21822,2.967794 0.83178,10.911439 2.33334,17.652549 3.1162,13.98989 3.47588,22.78188 1.06344,25.99484 -4.14998,5.52706 -23.81355,8.203019 -32.333344,4.40014 z"
     id="path879"
     inkscape:connector-curvature="0" />
</svg>
